<?xml version="1.0" encoding="utf-8"?>
<!-- Generator: Adobe Illustrator 25.0.0, SVG Export Plug-In . SVG Version: 6.00 Build 0)  -->
<svg version="1.1" id="图层_1" xmlns="http://www.w3.org/2000/svg" xmlns:xlink="http://www.w3.org/1999/xlink" x="0px" y="0px"
	 viewBox="0 0 200 200" style="enable-background:new 0 0 200 200;" xml:space="preserve">
<style type="text/css">
	.st0{fill:#FFFFFF;}
</style>
<path class="st0" d="M170.4,82.6c0,8.8-1.8,18.2-9.9,25.7c2-4.7,3-10.1,3-16.3v-9.3c0-22.9-12.1-34.6-42.2-38.3
	c-6-0.7-15.3,0-22.7,0c-42.2,0-62.8,10.8-62.8,38v9.8c0,6.7,1.2,12.5,3.7,17.6c-9.7-8-11.5-18.2-11.5-27V70.6
	c0-14.3,4.8-33.5,44.1-39.2v6.1h9.1V25.3c0-2-0.8-6.4,5.9-6.4c5.9,0,19.7-0.5,25.6,0c6.4,0.5,4.5,3.2,5,6.7v11.9h9.1v-5.8
	c38.3,5.9,43.5,23.9,43.5,39.1L170.4,82.6L170.4,82.6z M45,92.3v-9.8c0-13.5,5.6-30.4,53.7-30.4c7,0,13.4-0.7,19,0
	c32.6,4,36.7,18.4,36.7,30.6v9.3c0,11.1-2.9,23.2-28,28.5c-7.9,1.2-16.3,1.3-27.2,1.3c-9.5,0-19.6-0.4-26.8-1.3
	C47.2,115.2,45,102.6,45,92.3z M112.8,10.8c-6.3-0.5-19.3-0.5-25.6,0c-11.9,0.9-13.8,6.6-14.7,11.4c-36,4.7-53.5,20.6-53.5,48.4
	v12.3c0,33.5,26.6,46.9,79.7,46.9c55.7,0,80.8-13,80.8-47.2V70.8c0-27.5-17.4-43.3-53-48.3C123.9,11.9,116.3,11.1,112.8,10.8z
	 M99.5,138.3c-29,0-45.6,16.4-45.6,39v4.9h9.1v-4.9c0-21.9,19.8-30.5,36.5-30.5s36.5,8.6,36.5,30.5v4.9h9.1v-4.9
	c0-22.6-11.9-39-40.9-39H99.5z"/>
<path class="st0" d="M76.7,171.9v2.2h9.1v-2.2c0-2.3,0-7.9,13.7-7.9s13.7,5.7,13.7,7.9v2.2h9.1v-2.2c0-11.5-8.5-16.5-22.8-16.5
	S76.7,160.4,76.7,171.9z"/>
<path class="st0" d="M81.5,87.3c0,10,8.1,18,18.1,18s18.1-8.1,18.1-18s-8.1-18-18.1-18S81.5,77.3,81.5,87.3z"/>
</svg>
